<mxfile host="65bd71144e">
    <diagram id="zx-Ps4vzKkMy9NIpX8q6" name="Page-1">
        <mxGraphModel dx="834" dy="647" grid="1" gridSize="10" guides="1" tooltips="1" connect="1" arrows="1" fold="1" page="1" pageScale="1" pageWidth="850" pageHeight="1100" math="0" shadow="0">
            <root>
                <mxCell id="0"/>
                <mxCell id="1" parent="0"/>
                <mxCell id="2" value="alt" style="shape=umlFrame;whiteSpace=wrap;html=1;fontSize=10;width=45;height=20;" parent="1" vertex="1">
                    <mxGeometry x="710" y="408" width="438" height="122" as="geometry"/>
                </mxCell>
                <mxCell id="3" value="" style="shape=umlLifeline;participant=umlActor;perimeter=lifelinePerimeter;whiteSpace=wrap;html=1;container=1;collapsible=0;recursiveResize=0;verticalAlign=top;spacingTop=36;outlineConnect=0;size=70;" parent="1" vertex="1">
                    <mxGeometry x="295" y="210" width="40" height="460" as="geometry"/>
                </mxCell>
                <mxCell id="4" value="&lt;font style=&quot;font-size: 20px;&quot;&gt;Web UI&lt;/font&gt;" style="shape=umlLifeline;perimeter=lifelinePerimeter;whiteSpace=wrap;html=1;container=1;collapsible=0;recursiveResize=0;outlineConnect=0;size=60;" parent="1" vertex="1">
                    <mxGeometry x="395" y="210" width="125" height="460" as="geometry"/>
                </mxCell>
                <mxCell id="5" value="send the request" style="html=1;verticalAlign=bottom;endArrow=block;entryX=-0.084;entryY=0.029;entryDx=0;entryDy=0;entryPerimeter=0;labelBackgroundColor=none;" parent="4" source="6" edge="1">
                    <mxGeometry width="80" relative="1" as="geometry">
                        <mxPoint x="60" y="130" as="sourcePoint"/>
                        <mxPoint x="223.16000000000008" y="130.14999999999998" as="targetPoint"/>
                    </mxGeometry>
                </mxCell>
                <mxCell id="6" value="" style="html=1;points=[];perimeter=orthogonalPerimeter;verticalAlign=middle;fillStyle=auto;rounded=0;glass=0;shadow=0;fillColor=#f5f5f5;gradientColor=#b3b3b3;strokeColor=#666666;" parent="4" vertex="1">
                    <mxGeometry x="57.5" y="114" width="10" height="236" as="geometry"/>
                </mxCell>
                <mxCell id="7" value="&lt;font style=&quot;&quot;&gt;&lt;font style=&quot;font-size: 20px;&quot;&gt;Middleware&lt;/font&gt;&lt;br&gt;&lt;/font&gt;" style="shape=umlLifeline;perimeter=lifelinePerimeter;whiteSpace=wrap;html=1;container=1;collapsible=0;recursiveResize=0;outlineConnect=0;size=60;" parent="1" vertex="1">
                    <mxGeometry x="554" y="210" width="140" height="460" as="geometry"/>
                </mxCell>
                <mxCell id="8" value="" style="html=1;points=[];perimeter=orthogonalPerimeter;fontSize=11;fillColor=#f5f5f5;gradientColor=#b3b3b3;strokeColor=#666666;" parent="7" vertex="1">
                    <mxGeometry x="65" y="124.5" width="10" height="22.5" as="geometry"/>
                </mxCell>
                <mxCell id="9" value="&lt;span style=&quot;font-size: 20px;&quot;&gt;Domain&lt;br&gt;Service&lt;br&gt;&lt;/span&gt;" style="shape=umlLifeline;perimeter=lifelinePerimeter;whiteSpace=wrap;html=1;container=1;collapsible=0;recursiveResize=0;outlineConnect=0;size=60;" parent="1" vertex="1">
                    <mxGeometry x="905" y="210" width="120" height="460" as="geometry"/>
                </mxCell>
                <mxCell id="10" value="&lt;font style=&quot;font-size: 11px;&quot;&gt;pass the request&lt;br&gt;&lt;/font&gt;" style="html=1;verticalAlign=bottom;endArrow=block;fontSize=14;labelBackgroundColor=none;entryX=0.043;entryY=0.088;entryDx=0;entryDy=0;entryPerimeter=0;" parent="9" edge="1">
                    <mxGeometry relative="1" as="geometry">
                        <mxPoint x="-101.5" y="169" as="sourcePoint"/>
                        <mxPoint x="55.430000000000064" y="168.93599999999992" as="targetPoint"/>
                    </mxGeometry>
                </mxCell>
                <mxCell id="11" value="" style="html=1;points=[];perimeter=orthogonalPerimeter;rounded=0;shadow=0;glass=0;sketch=0;fillStyle=auto;fontSize=14;fillColor=#f5f5f5;gradientColor=#b3b3b3;strokeColor=#666666;" parent="9" vertex="1">
                    <mxGeometry x="55" y="168" width="10" height="122" as="geometry"/>
                </mxCell>
                <mxCell id="12" value="&lt;font style=&quot;font-size: 11px;&quot;&gt;admin enters the data&lt;br&gt;&lt;/font&gt;" style="html=1;verticalAlign=bottom;endArrow=block;fontSize=22;labelBackgroundColor=none;" parent="1" target="6" edge="1">
                    <mxGeometry width="80" relative="1" as="geometry">
                        <mxPoint x="315" y="330" as="sourcePoint"/>
                        <mxPoint x="445" y="330" as="targetPoint"/>
                        <Array as="points"/>
                        <mxPoint as="offset"/>
                    </mxGeometry>
                </mxCell>
                <mxCell id="13" value="&lt;font style=&quot;font-size: 20px;&quot;&gt;Application Service&lt;/font&gt;" style="shape=umlLifeline;perimeter=lifelinePerimeter;whiteSpace=wrap;html=1;container=1;collapsible=0;recursiveResize=0;outlineConnect=0;size=60;" parent="1" vertex="1">
                    <mxGeometry x="735" y="210" width="127" height="460" as="geometry"/>
                </mxCell>
                <mxCell id="14" value="" style="html=1;points=[];perimeter=orthogonalPerimeter;rounded=0;shadow=0;glass=0;sketch=0;fillStyle=auto;fontSize=14;fillColor=#f5f5f5;gradientColor=#b3b3b3;strokeColor=#666666;" parent="13" vertex="1">
                    <mxGeometry x="58.5" y="140" width="10" height="220" as="geometry"/>
                </mxCell>
                <mxCell id="15" value="error message of no such admin" style="html=1;verticalAlign=bottom;endArrow=open;dashed=1;endSize=8;labelBackgroundColor=none;fontSize=9;exitX=-0.191;exitY=0.521;exitDx=0;exitDy=0;exitPerimeter=0;" parent="13" edge="1">
                    <mxGeometry relative="1" as="geometry">
                        <mxPoint x="223.09000000000015" y="229.56200000000013" as="sourcePoint"/>
                        <mxPoint x="68.5" y="230" as="targetPoint"/>
                    </mxGeometry>
                </mxCell>
                <mxCell id="16" value="&quot;admin deleted&quot; message" style="html=1;verticalAlign=bottom;endArrow=open;dashed=1;endSize=8;labelBackgroundColor=none;fontSize=9;exitX=-0.092;exitY=0.877;exitDx=0;exitDy=0;exitPerimeter=0;" parent="13" source="11" edge="1">
                    <mxGeometry relative="1" as="geometry">
                        <mxPoint x="203" y="273.9999999999999" as="sourcePoint"/>
                        <mxPoint x="69" y="275.4972067039106" as="targetPoint"/>
                    </mxGeometry>
                </mxCell>
                <mxCell id="17" value="response the final message" style="html=1;verticalAlign=bottom;endArrow=open;dashed=1;endSize=8;labelBackgroundColor=none;fontSize=9;exitX=-0.092;exitY=0.877;exitDx=0;exitDy=0;exitPerimeter=0;" parent="13" edge="1">
                    <mxGeometry relative="1" as="geometry">
                        <mxPoint x="61.499999999999886" y="340.0039999999999" as="sourcePoint"/>
                        <mxPoint x="-272" y="340" as="targetPoint"/>
                    </mxGeometry>
                </mxCell>
                <mxCell id="18" value="" style="html=1;points=[];perimeter=orthogonalPerimeter;fillColor=#f5f5f5;gradientColor=#b3b3b3;strokeColor=#666666;" parent="1" vertex="1">
                    <mxGeometry x="310" y="324" width="10" height="236" as="geometry"/>
                </mxCell>
                <mxCell id="19" value="&lt;font style=&quot;font-size: 11px;&quot;&gt;checks jwt and pass the request&lt;br&gt;&lt;/font&gt;" style="html=1;verticalAlign=bottom;endArrow=block;fontSize=14;labelBackgroundColor=none;" parent="1" edge="1">
                    <mxGeometry relative="1" as="geometry">
                        <mxPoint x="630" y="351" as="sourcePoint"/>
                        <mxPoint x="794" y="351" as="targetPoint"/>
                    </mxGeometry>
                </mxCell>
                <mxCell id="20" value="&lt;span style=&quot;font-size: 20px;&quot;&gt;Database&lt;br&gt;&lt;/span&gt;" style="shape=umlLifeline;perimeter=lifelinePerimeter;whiteSpace=wrap;html=1;container=1;collapsible=0;recursiveResize=0;outlineConnect=0;size=60;" parent="1" vertex="1">
                    <mxGeometry x="1060" y="210" width="120" height="460" as="geometry"/>
                </mxCell>
                <mxCell id="21" value="&lt;font style=&quot;font-size: 11px;&quot;&gt;checks user already is admin&lt;br&gt;and if ok, delete admin&lt;br&gt;&lt;/font&gt;" style="html=1;verticalAlign=bottom;endArrow=block;fontSize=14;labelBackgroundColor=none;entryX=0.044;entryY=0.016;entryDx=0;entryDy=0;entryPerimeter=0;" parent="20" target="22" edge="1">
                    <mxGeometry relative="1" as="geometry">
                        <mxPoint x="-90" y="189" as="sourcePoint"/>
                        <mxPoint x="64" y="189" as="targetPoint"/>
                    </mxGeometry>
                </mxCell>
                <mxCell id="22" value="" style="html=1;points=[];perimeter=orthogonalPerimeter;rounded=0;shadow=0;glass=0;sketch=0;fillStyle=auto;fontSize=14;fillColor=#f5f5f5;gradientColor=#b3b3b3;strokeColor=#666666;" parent="20" vertex="1">
                    <mxGeometry x="55" y="187" width="10" height="83" as="geometry"/>
                </mxCell>
                <mxCell id="23" value="no is not exist" style="html=1;verticalAlign=bottom;endArrow=open;dashed=1;endSize=8;labelBackgroundColor=none;fontSize=9;" parent="20" edge="1">
                    <mxGeometry relative="1" as="geometry">
                        <mxPoint x="55" y="218" as="sourcePoint"/>
                        <mxPoint x="-90" y="218" as="targetPoint"/>
                    </mxGeometry>
                </mxCell>
                <mxCell id="24" value="yes is admin" style="html=1;verticalAlign=bottom;endArrow=open;dashed=1;endSize=8;labelBackgroundColor=none;fontSize=9;" parent="20" edge="1">
                    <mxGeometry relative="1" as="geometry">
                        <mxPoint x="55" y="266.9999999999999" as="sourcePoint"/>
                        <mxPoint x="-90" y="266.9999999999999" as="targetPoint"/>
                    </mxGeometry>
                </mxCell>
                <mxCell id="25" value="" style="endArrow=none;dashed=1;html=1;labelBackgroundColor=none;fontSize=9;dashPattern=8 8;entryX=1.001;entryY=0.428;entryDx=0;entryDy=0;entryPerimeter=0;" parent="1" target="2" edge="1">
                    <mxGeometry width="50" height="50" relative="1" as="geometry">
                        <mxPoint x="711" y="461.3299999999999" as="sourcePoint"/>
                        <mxPoint x="1131.876" y="461.558" as="targetPoint"/>
                    </mxGeometry>
                </mxCell>
                <mxCell id="26" value="&lt;span style=&quot;font-size: 9px; font-weight: 700; text-align: center;&quot;&gt;[if admin&lt;br&gt;&lt;/span&gt;&lt;span style=&quot;font-size: 9px; font-weight: 700; text-align: center;&quot;&gt;does not exists]&lt;/span&gt;" style="text;whiteSpace=wrap;html=1;" parent="1" vertex="1">
                    <mxGeometry x="714" y="421" width="180" height="40" as="geometry"/>
                </mxCell>
                <mxCell id="27" value="&lt;span style=&quot;border-color: rgb(0, 0, 0); color: rgb(240, 240, 240); font-family: Helvetica; font-style: normal; font-variant-ligatures: normal; font-variant-caps: normal; letter-spacing: normal; orphans: 2; text-indent: 0px; text-transform: none; widows: 2; word-spacing: 0px; -webkit-text-stroke-width: 0px; text-decoration-thickness: initial; text-decoration-style: initial; text-decoration-color: initial; font-size: 9px; font-weight: 700; text-align: center; background-color: rgb(42, 37, 47); float: none; display: inline !important;&quot;&gt;[else&lt;/span&gt;&lt;span style=&quot;border-color: rgb(0, 0, 0); color: rgb(240, 240, 240); font-family: Helvetica; font-style: normal; font-variant-ligatures: normal; font-variant-caps: normal; letter-spacing: normal; orphans: 2; text-indent: 0px; text-transform: none; widows: 2; word-spacing: 0px; -webkit-text-stroke-width: 0px; text-decoration-thickness: initial; text-decoration-style: initial; text-decoration-color: initial; font-size: 9px; font-weight: 700; text-align: center; background-color: rgb(42, 37, 47); float: none; display: inline !important;&quot;&gt;]&lt;/span&gt;" style="text;whiteSpace=wrap;html=1;" parent="1" vertex="1">
                    <mxGeometry x="715" y="461" width="90" height="50" as="geometry"/>
                </mxCell>
                <mxCell id="28" value="show the message" style="html=1;verticalAlign=bottom;endArrow=open;dashed=1;endSize=8;labelBackgroundColor=none;fontSize=9;" parent="1" edge="1">
                    <mxGeometry relative="1" as="geometry">
                        <mxPoint x="450" y="559" as="sourcePoint"/>
                        <mxPoint x="320.0003448275861" y="559.0039999999999" as="targetPoint"/>
                    </mxGeometry>
                </mxCell>
            </root>
        </mxGraphModel>
    </diagram>
</mxfile>